{"title":"Rugby Union Six Nations - Scotland v Italy - 2015.02.28 - 504p x","uid":11727901,"size":1638548814,"categoryP":"video","categoryS":"tv_shows","magnet":"?xt=urn:btih:84cbced1ee2037b6c6a04d8017b20b42aa00ba25&amp;dn=Rugby+Union+Six+Nations+-+Scotland+v+Italy+-+2015.02.28+-+504p+x&amp;tr=udp%3A%2F%2Ftracker.openbittorrent.com%3A80&amp;tr=udp%3A%2F%2Fopen.demonii.com%3A1337&amp;tr=udp%3A%2F%2Ftracker.coppersurfer.tk%3A6969&amp;tr=udp%3A%2F%2Fexodus.desync.com%3A6969","seeders":3,"leechers":0,"uploader":"rugbybill","files":2,"time":1425150321,"description":"SPORT: Six Nations Rugby Union - Scotland v Italy\nOn: BBC 1 HD    \nDate: Saturday 28th February 2015 \nTime: 14:00 to 16:30 \n\nJohn Inverdale introduces live coverage as Scotland face Italy at Murrayfield in the third round of fixtures in this year's Six Nations. The hosts will be aiming for three in a row against the Azzurri after last season's thrilling victory in Rome, which came courtesy of Duncan Weir's last-minute drop goal. That win ended Scotland's run of eight consecutive away defeats in the Six Nations and ensured they finished above Italy in the table. Studio guests include former Scotland player and coach Sir Ian McGeechan, Chris Paterson and Carlo del Fava, while match commentary comes from Eddie Butler and Andy Nicol. This is the full BBC coverage. \n\nDownloading slowly? How to become connectable: &lt;--- That's where most of my uploads go to.\n\n\nGeneral\nComplete name                            : 2015.02.28.6N.R3.Scotland.v.Italy.504p.x264.mp4\nFormat                                   : MPEG-4\nFormat profile                           : Base Media\nCodec ID                                 : isom\nFile size                                : 1.53 GiB\nDuration                                 : 2h 28mn\nOverall bit rate                         : 1 467 Kbps\n\nVideo\nID                                       : 1\nFormat                                   : AVC\nFormat/Info                              : Advanced Video Codec\nFormat profile                           : &lt;a class=&quot;__cf_email__&quot; href=&quot;/cdn-cgi/l/email-protection&quot; data-cfemail=&quot;b1f9d8d6d9f1fd829f80&quot;&gt;[email&amp;#160;protected]&lt;/a&gt;&lt;script cf-hash='f9e31' type=&quot;text/javascript&quot;&gt;\n/* &lt;![CDATA[ */!function(){try{var t=&quot;currentScript&quot;in document?document.currentScript:function(){for(var t=document.getElementsByTagName(&quot;script&quot;),e=t.length;e--;)if(t[e].getAttribute(&quot;cf-hash&quot;))return t[e]}();if(t&amp;&amp;t.previousSibling){var e,r,n,i,c=t.previousSibling,a=c.getAttribute(&quot;data-cfemail&quot;);if(a){for(e=&quot;&quot;,r=parseInt(a.substr(0,2),16),n=2;a.length-n;n+=2)i=parseInt(a.substr(n,2),16)^r,e+=String.fromCharCode(i);e=document.createTextNode(e),c.parentNode.replaceChild(e,c)}}}catch(u){}}();/* ]]&gt; */&lt;/script&gt;\nFormat settings, CABAC                   : Yes\nFormat settings, ReFrames                : 2 frames\nCodec ID                                 : avc1\nCodec ID/Info                            : Advanced Video Coding\nDuration                                 : 2h 28mn\nBit rate                                 : 1 368 Kbps\nWidth                                    : 896 pixels\nHeight                                   : 504 pixels\nDisplay aspect ratio                     : 16:9\nFrame rate mode                          : Variable\nFrame rate                               : 25.000 fps\nMinimum frame rate                       : 25.000 fps\nMaximum frame rate                       : 16 000.000 fps\nStandard                                 : Component\nColor space                              : YUV\nChroma subsampling                       : 4:2:0\nBit depth                                : 8 bits\nScan type                                : Progressive\nBits/(Pixel*Frame)                       : 0.121\nStream size                              : 1.42 GiB (93%)\n\nAudio\nID                                       : 2\nFormat                                   : AAC\nFormat/Info                              : Advanced Audio Codec\nFormat profile                           : LC\nCodec ID                                 : 40\nDuration                                 : 2h 28mn\nBit rate mode                            : Constant\nBit rate                                 : 93.5 Kbps\nChannel(s)                               : 2 channels\nChannel positions                        : Front: L R\nSampling rate                            : 48.0 KHz\nCompression mode                         : Lossy\nStream size                              : 99.6 MiB (6%)","torrent":{"xt":"urn:btih:84cbced1ee2037b6c6a04d8017b20b42aa00ba25","amp;dn":"Rugby+Union+Six+Nations+-+Scotland+v+Italy+-+2015.02.28+-+504p+x","amp;tr":["udp%3A%2F%2Ftracker.openbittorrent.com%3A80","udp%3A%2F%2Fopen.demonii.com%3A1337","udp%3A%2F%2Ftracker.coppersurfer.tk%3A6969","udp%3A%2F%2Fexodus.desync.com%3A6969"],"infoHash":"84cbced1ee2037b6c6a04d8017b20b42aa00ba25","infoHashBuffer":{"type":"Buffer","data":[132,203,206,209,238,32,55,182,198,160,77,128,23,178,11,66,170,0,186,37]},"announce":[],"urlList":[]}}